<svg width="24px" height="24px" viewBox="0 0 24 24" xmlns="http://www.w3.org/2000/svg">
  <path d="M6,17 L6,11 L4.5,11 C3.67157288,11 3,11.6715729 3,12.5 L3,15.5 C3,16.3284271 3.67157288,17 4.5,17 L6,17 Z M13.9146471,20 L16.0584816,20 C16.7041272,20 17.2773354,19.5868549 17.4815065,18.9743416 L17.7094306,18.2905694 C17.7432317,18.1891661 17.7850711,18.0921054 17.8340988,18 L17.5,18 C17.2238576,18 17,17.7761424 17,17.5 L17,10.5 C17,10.2238576 17.2238576,10 17.5,10 L18,10 L18,8.98439023 C18,5.67068173 15.3137085,2.98439023 12,2.98439023 C8.6862915,2.98439023 6,5.67068173 6,8.98439023 L6,10 L6.5,10 C6.77614237,10 7,10.2238576 7,10.5 L7,17.5 C7,17.7761424 6.77614237,18 6.5,18 L4.5,18 C3.11928813,18 2,16.8807119 2,15.5 L2,12.5 C2,11.1192881 3.11928813,10 4.5,10 L5,10 L5,8.98439023 C5,5.11839698 8.13400675,1.98439023 12,1.98439023 C15.8659932,1.98439023 19,5.11839698 19,8.98439023 L19,10 L19.5,10 C20.8807119,10 22,11.1192881 22,12.5 L22,15.5 C22,16.8807119 20.8807119,18 19.5,18 C19.1180249,18 18.778905,18.2444238 18.6581139,18.6067972 L18.4301898,19.2905694 C18.0899047,20.3114248 17.1345576,21 16.0584816,21 L13.9146471,21 C13.7087289,21.5825962 13.1531094,22 12.5,22 L11.5,22 C10.6715729,22 10,21.3284271 10,20.5 C10,19.6715729 10.6715729,19 11.5,19 L12.5,19 C13.1531094,19 13.7087289,19.4174038 13.9146471,20 L13.9146471,20 Z M18,11 L18,17 L19.5,17 C20.3284271,17 21,16.3284271 21,15.5 L21,12.5 C21,11.6715729 20.3284271,11 19.5,11 L18,11 Z M11,20.5 C11,20.7761424 11.2238576,21 11.5,21 L12.5,21 C12.7761424,21 13,20.7761424 13,20.5 C13,20.2238576 12.7761424,20 12.5,20 L11.5,20 C11.2238576,20 11,20.2238576 11,20.5 Z"/>
</svg>
