<?xml version="1.0" encoding="iso-8859-1"?>
<!-- Generator: Adobe Illustrator 19.0.0, SVG Export Plug-In . SVG Version: 6.00 Build 0)  -->
<svg version="1.1" id="Capa_1" xmlns="http://www.w3.org/2000/svg" xmlns:xlink="http://www.w3.org/1999/xlink" x="0px" y="0px"
	 viewBox="0 0 60 60" style="enable-background:new 0 0 60 60;" xml:space="preserve">
<g>
	<g>
		<rect x="28" y="11.512" width="4" height="2"/>
		<rect x="25" y="15.512" width="10" height="2"/>
		<rect x="11" y="29.512" width="2" height="2"/>
		<rect x="15" y="29.512" width="2" height="2"/>
		<rect x="19" y="29.512" width="2" height="2"/>
		<rect x="23" y="29.512" width="2" height="2"/>
		<rect x="27" y="29.512" width="2" height="2"/>
		<rect x="31" y="29.512" width="2" height="2"/>
		<rect x="35" y="29.512" width="2" height="2"/>
		<rect x="39" y="29.512" width="2" height="2"/>
		<rect x="43" y="29.512" width="2" height="2"/>
		<rect x="47" y="29.512" width="2" height="2"/>
		<rect x="20" y="43.512" width="2" height="2"/>
		<path d="M32,36.512v12c0,0.6,0.4,1,1,1h14c0.6,0,1-0.4,1-1v-12c0-0.6-0.4-1-1-1H33C32.4,35.512,32,35.913,32,36.512z M34,43.512h5
			v4h-5V43.512z M41,47.512v-4h5v4H41z M46,41.512h-5v-4h5V41.512z M39,37.512v4h-5v-4H39z"/>
		<path d="M56,55.512v-3c0-0.6-0.4-1-1-1h-2v-24h3c0.6,0,1-0.4,1-1v-3.7c0-0.3-0.1-0.6-0.4-0.8l-7.6-5.6v-11.9c0-0.6-0.4-1-1-1h-8
			c-0.6,0-1,0.4-1,1v4.4l-8.4-6.2c-0.4-0.3-0.8-0.3-1.2,0l-25.3,18.8H4v0.1l-0.6,0.4c-0.3,0.2-0.4,0.5-0.4,0.8v3.7c0,0.6,0.4,1,1,1
			h3v24H5c-0.6,0-1,0.4-1,1v3H0v2h5h50h5v-2H56z M47,5.512v1h-6v-1H47z M41,8.512h6v6.4l-6-4.5V8.512z M5,23.512h40v-2H7.4L30,4.713
			l25,18.6v2.2h-3H8H5V23.512z M9,27.512h42v24H26v-14h2v-2h-3H14h-3v2h2v14H9V27.512z M15,37.512h9v14h-9V37.512z M6,55.512v-2h2h6
			h11h27h2v2H6z"/>
	</g>
</g>
<g>
</g>
<g>
</g>
<g>
</g>
<g>
</g>
<g>
</g>
<g>
</g>
<g>
</g>
<g>
</g>
<g>
</g>
<g>
</g>
<g>
</g>
<g>
</g>
<g>
</g>
<g>
</g>
<g>
</g>
</svg>
