<?xml version="1.0" encoding="iso-8859-1"?>
<!-- Generator: Adobe Illustrator 19.1.0, SVG Export Plug-In . SVG Version: 6.00 Build 0)  -->
<svg version="1.1" id="Capa_1" xmlns="http://www.w3.org/2000/svg" xmlns:xlink="http://www.w3.org/1999/xlink" x="0px" y="0px"
	 viewBox="0 0 485.501 485.501" style="enable-background:new 0 0 485.501 485.501;" xml:space="preserve">
<g>
	<g>
		<path d="M466.1,199.901c-12.1-13-29.2-20.2-48.2-20.2h-43.7v-23l0,0c0-0.4,0-0.8-0.1-1.1c0-0.2-0.1-0.4-0.1-0.5
			c0-0.2-0.1-0.4-0.1-0.6c0-0.2-0.1-0.4-0.1-0.6c0-0.2-0.1-0.4-0.1-0.5c-0.1-0.2-0.1-0.4-0.2-0.6c-0.1-0.2-0.1-0.4-0.2-0.5
			c-0.1-0.2-0.2-0.3-0.2-0.5c-0.1-0.2-0.2-0.4-0.3-0.5c-0.1-0.2-0.2-0.3-0.3-0.5c-0.1-0.2-0.2-0.4-0.3-0.5c-0.1-0.2-0.2-0.3-0.4-0.5
			c-0.1-0.1-0.2-0.3-0.3-0.4c-0.2-0.3-0.5-0.6-0.7-0.8c0,0,0,0-0.1-0.1l-45.2-45.6c-2.3-2.3-5.3-3.5-8.5-3.5l0,0H193.1
			c-3.2,0-6.2,1.3-8.5,3.5l-45.2,45.2c0,0,0,0-0.1,0.1c-0.3,0.3-0.5,0.5-0.7,0.8c-0.1,0.1-0.2,0.3-0.3,0.4c-0.1,0.2-0.3,0.3-0.4,0.5
			c-0.1,0.2-0.2,0.4-0.3,0.5c-0.1,0.2-0.2,0.3-0.3,0.5s-0.2,0.4-0.3,0.5c-0.1,0.2-0.2,0.3-0.2,0.5c-0.1,0.2-0.1,0.4-0.2,0.5
			c-0.1,0.2-0.1,0.4-0.2,0.6c-0.1,0.2-0.1,0.4-0.1,0.5c-0.1,0.2-0.1,0.4-0.1,0.6c0,0.2-0.1,0.4-0.1,0.6c0,0.2-0.1,0.4-0.1,0.5
			c0,0.4-0.1,0.8-0.1,1.1l0,0v189.7c0,6.6,5.4,12,12,12h31.6c4.1,16.1,18.8,28.1,36.1,28.1s32-12,36.1-28.1h110.4h16.2
			c4.1,16.1,18.8,28.1,36.1,28.1c17.4,0,32-12,36.1-28.1h23c6.6,0,12-5.4,12-12v-89.2C485.6,233.501,478.9,213.701,466.1,199.901z
			 M333.3,144.701h-67.7v-21.2H312L333.3,144.701z M198.1,123.401h43.5v21.2h-64.7L198.1,123.401z M159.9,168.701h190.3v23v142.6
			h-99.8c-0.2,0-0.3,0-0.5,0c-5.7-13.2-18.9-22.5-34.2-22.5c-15.4,0-28.6,9.3-34.3,22.6c-0.5-0.1-1-0.1-1.6-0.1h-19.9L159.9,168.701
			L159.9,168.701z M215.7,362.401c-7.3,0-13.3-6-13.3-13.3s6-13.3,13.3-13.3s13.3,6,13.3,13.3S223,362.401,215.7,362.401z
			 M414.5,362.401c-7.3,0-13.3-6-13.3-13.3s6-13.3,13.3-13.3s13.3,6,13.3,13.3S421.9,362.401,414.5,362.401z M461.6,334.301h-12.8
			c-5.7-13.2-18.9-22.5-34.2-22.5c-15.3,0-28.5,9.3-34.2,22.5h-6.1v-130.6H418c27.4,0,43.7,20,43.7,53.5v77.1H461.6z"/>
		<path d="M114.2,192.801H48.5c-6.6,0-12,5.4-12,12s5.4,12,12,12h65.7c6.6,0,12-5.4,12-12S120.8,192.801,114.2,192.801z"/>
		<path d="M114.2,239.501H12c-6.6,0-12,5.4-12,12s5.4,12,12,12h102.2c6.6,0,12-5.4,12-12S120.8,239.501,114.2,239.501z"/>
		<path d="M114.2,286.201H48.5c-6.6,0-12,5.4-12,12s5.4,12,12,12h65.7c6.6,0,12-5.4,12-12S120.8,286.201,114.2,286.201z"/>
	</g>
</g>
<g>
</g>
<g>
</g>
<g>
</g>
<g>
</g>
<g>
</g>
<g>
</g>
<g>
</g>
<g>
</g>
<g>
</g>
<g>
</g>
<g>
</g>
<g>
</g>
<g>
</g>
<g>
</g>
<g>
</g>
</svg>
