<?xml version="1.0" encoding="iso-8859-1"?>
<!-- Generator: Adobe Illustrator 19.0.0, SVG Export Plug-In . SVG Version: 6.00 Build 0)  -->
<svg version="1.1" id="Layer_1" xmlns="http://www.w3.org/2000/svg" xmlns:xlink="http://www.w3.org/1999/xlink" x="0px" y="0px"
	 viewBox="0 0 490 490" style="enable-background:new 0 0 490 490;" xml:space="preserve">
<g>
	<g>
		<g>
			<path d="M344.532,0.002v61.25H0v229.686h22.969v22.969h15.312v-22.969H229.69v15.312c0,4.221-3.432,7.656-7.656,7.656H84.222
				c-12.666,0-22.968,10.303-22.968,22.969v15.312H30.625v137.811h321.564V352.186H76.566v-15.312c0-4.221,3.432-7.656,7.656-7.656
				h137.811c12.666,0,22.969-10.303,22.969-22.969v-15.312h122.499v22.969h15.312v-22.969h22.969v-15.312H490V0.002H344.532z
				 M336.876,367.498v107.187H45.937V367.498H336.876z M390.47,275.624H15.312V76.564H390.47V275.624z M474.688,260.311h-68.906
				v-26.191c4.781,2.09,9.983,3.223,15.312,3.223c21.107,0,38.281-17.174,38.281-38.281c0-21.107-17.174-38.281-38.281-38.281
				c-5.331,0-10.532,1.133-15.312,3.219V61.25h-45.937V15.314h114.843V260.311z M405.782,216.01v-33.893
				c4.198-3.79,9.6-6.023,15.312-6.023c12.666,0,22.968,10.303,22.968,22.968c0,12.666-10.303,22.969-22.968,22.969
				C415.387,222.031,409.985,219.797,405.782,216.01z"/>
			<rect x="30.625" y="244.999" width="53.597" height="15.312"/>
			<rect x="99.534" y="244.999" width="22.969" height="15.312"/>
			<rect x="137.815" y="244.999" width="22.969" height="15.312"/>
			<rect x="375.157" y="30.627" width="84.218" height="15.312"/>
			<rect x="421.094" y="61.25" width="38.281" height="15.312"/>
			<rect x="421.094" y="91.875" width="38.281" height="15.312"/>
			<rect x="444.063" y="122.5" width="15.312" height="15.312"/>
			<rect x="176.096" y="91.875" width="38.281" height="15.312"/>
			<rect x="137.815" y="444.06" width="122.499" height="15.312"/>
			<rect x="107.19" y="444.06" width="15.312" height="15.312"/>
			<rect x="61.249" y="444.06" width="30.628" height="15.312"/>
			<rect x="61.25" y="413.435" width="38.285" height="15.312"/>
			<rect x="114.847" y="413.435" width="15.312" height="15.312"/>
			<rect x="145.471" y="413.435" width="15.312" height="15.312"/>
			<rect x="176.096" y="413.435" width="15.312" height="15.312"/>
			<rect x="206.721" y="413.435" width="15.312" height="15.312"/>
			<rect x="237.346" y="413.435" width="15.312" height="15.312"/>
			<rect x="267.97" y="413.435" width="15.312" height="15.312"/>
			<rect x="298.595" y="413.435" width="22.969" height="15.312"/>
			<rect x="61.25" y="382.811" width="15.316" height="15.312"/>
			<rect x="91.878" y="382.811" width="15.312" height="15.312"/>
			<rect x="122.503" y="382.811" width="15.312" height="15.312"/>
			<rect x="153.128" y="382.811" width="15.312" height="15.312"/>
			<rect x="183.752" y="382.811" width="15.312" height="15.312"/>
			<rect x="214.377" y="382.811" width="15.312" height="15.312"/>
			<rect x="245.002" y="382.811" width="15.312" height="15.312"/>
			<rect x="275.627" y="382.811" width="15.312" height="15.312"/>
			<rect x="306.251" y="382.811" width="15.312" height="15.312"/>
			<rect x="275.627" y="444.06" width="15.312" height="15.312"/>
			<rect x="306.251" y="444.06" width="15.312" height="15.312"/>
			<path d="M436.407,352.186c-21.107,0-38.281,17.174-38.281,38.281v61.25c0,21.107,17.174,38.281,38.281,38.281
				s38.281-17.174,38.281-38.281v-61.25C474.688,369.36,457.514,352.186,436.407,352.186z M459.375,451.716
				c0,12.666-10.303,22.968-22.969,22.968s-22.969-10.303-22.969-22.968v-61.25c0-12.666,10.303-22.969,22.969-22.969
				c12.666,0,22.969,10.303,22.969,22.969V451.716z"/>
			<rect x="428.751" y="382.811" width="15.312" height="15.312"/>
		</g>
	</g>
</g>
<g>
</g>
<g>
</g>
<g>
</g>
<g>
</g>
<g>
</g>
<g>
</g>
<g>
</g>
<g>
</g>
<g>
</g>
<g>
</g>
<g>
</g>
<g>
</g>
<g>
</g>
<g>
</g>
<g>
</g>
</svg>
