<svg width="555" height="192" viewBox="0 0 555 192" fill="none" xmlns="http://www.w3.org/2000/svg">
<g clip-path="url(#clip0_1_88)">
<path d="M332.839 97.9204L366.03 70.6519L332.839 43.3834L342.959 35.0723L386.269 70.6519L342.959 106.232L332.839 97.9204Z" fill="#E6E6E6"/>
<path d="M251.548 59.7124H238.056V70.8311H251.548V59.7124Z" fill="#E6E6E6"/>
<path d="M305.787 59.7124H292.295V70.8311H305.787V59.7124Z" fill="#E6E6E6"/>
<path d="M278.668 59.7124H265.176V70.8311H278.668V59.7124Z" fill="#E6E6E6"/>
<path d="M219.774 97.6426L186.55 70.3741L219.741 43.1056L209.621 34.7944L166.345 70.3741L209.655 105.954L219.774 97.6426Z" fill="#E6E6E6"/>
<path d="M332.839 92.6392L366.03 65.3708L332.839 38.1018L342.959 29.7906L386.269 65.3708L342.959 100.95L332.839 92.6392Z" fill="#FF7D1B"/>
<path d="M238.056 67.3163H251.548V56.1976H238.056L238.056 67.3163ZM305.787 56.1976H292.295V67.3163H305.787V56.1976ZM265.176 67.3163H278.668V56.1976H265.176V67.3163Z" fill="#FF7D1B"/>
<path d="M219.774 92.3611L186.55 65.0926L219.741 37.8241L209.621 29.5129L166.345 65.0926L209.655 100.672L219.774 92.3611Z" fill="#FF7D1B"/>
<path d="M57.2967 181.27L64.8499 182.774L75.4873 159.483L64.3397 157.262L57.2967 181.27Z" fill="#A0616A"/>
<path d="M53.7206 186.859L56.04 178.953L70.8176 181.897C73.3045 182.395 75.4502 183.685 76.7839 185.485C78.1177 187.285 78.5306 189.448 77.9319 191.498L77.8808 191.672L53.7206 186.859Z" fill="#2F2E41"/>
<path d="M90.7331 185.51L98.5039 185.51L102.2 160.81L90.7321 160.81L90.7331 185.51Z" fill="#A0616A"/>
<path d="M88.8506 183.501L104.054 183.501H104.054C106.614 183.501 109.07 184.339 110.88 185.83C112.69 187.322 113.707 189.345 113.707 191.455V191.634L88.851 191.635L88.8506 183.501Z" fill="#2F2E41"/>
<path d="M88.9097 176.963L90.1872 138.537L88.4663 122.956L85.1084 134.947L70.4353 174.378L57.7859 171.635L72.4357 129.119L69.2539 101.848L78.3954 97.0057L78.5187 97.0241L109.751 101.768L102.207 175.867L88.9097 176.963Z" fill="#2F2E41"/>
<path d="M101.271 107.118C98.7554 107.118 95.8139 106.45 92.5396 104.546C82.0619 98.4519 69.5688 105.007 69.4436 105.074L68.9363 105.346L68.9541 104.847C68.9668 104.492 70.2216 69.202 70.2216 57.8461C70.2216 46.1138 79.5102 37.5475 82.3571 35.2017C85.1513 32.8987 87.5024 32.9497 90.4787 33.0134C90.9916 33.0242 91.5262 33.0359 92.0885 33.0359C95.978 33.0359 99.7594 36.1152 99.9185 36.2463L99.9944 36.3091L100.009 36.3968L110.801 103.363L110.719 103.449C110.669 103.502 107.124 107.118 101.271 107.118Z" fill="#FF7D1B"/>
<path d="M107.4 22.4072C111.524 16.1903 108.752 8.39557 101.208 4.99713C93.6635 1.59869 84.2048 3.88346 80.0809 10.1003C75.9569 16.3172 78.7295 24.1119 86.2735 27.5104C93.8175 30.9088 103.276 28.624 107.4 22.4072Z" fill="#A0616A"/>
<path d="M117.571 117.841C116.835 117.37 116.233 116.773 115.807 116.09C115.381 115.407 115.142 114.655 115.107 113.888C115.071 113.12 115.241 112.356 115.603 111.648C115.965 110.941 116.51 110.307 117.202 109.793L108.361 92.608L119.937 94.3637L126.557 110.413C127.53 111.427 128.017 112.701 127.927 113.991C127.837 115.282 127.175 116.5 126.068 117.416C124.96 118.331 123.483 118.88 121.917 118.959C120.352 119.037 118.805 118.639 117.571 117.841Z" fill="#A0616A"/>
<path d="M115.067 108.059L99.093 81.2041L92.0886 60.9922L92.0941 43.4338C92.1099 43.3644 93.7565 36.5345 99.8597 37.0068C105.394 37.4485 108.375 39.6786 109.826 44.4636C111.059 48.5285 109.373 60.5877 109.21 61.7257C110.28 63.818 126.346 95.3628 123.686 99.1614C123.587 99.3094 123.442 99.4332 123.266 99.5205L126.113 104.473L115.067 108.059Z" fill="#FF7D1B"/>
<path d="M91.75 21.0869C93.6161 21.287 95.0238 19.7136 95.6767 18.2591C96.3296 16.8046 96.827 15.1113 98.4495 14.3256C100.666 13.2522 103.502 14.5432 106.037 14.1891C108.9 13.7891 110.761 11.289 110.907 8.89935C111.053 6.50968 109.899 4.21131 108.766 2.00806L108.371 4.74621C108.424 3.81818 108.187 2.8945 107.683 2.06352C107.179 1.23253 106.424 0.522041 105.492 0L106.001 4.01781C105.893 3.46349 105.653 2.93228 105.294 2.45465C104.936 1.97702 104.467 1.56238 103.914 1.23453C103.361 0.906685 102.735 0.672084 102.071 0.54419C101.408 0.416295 100.72 0.397625 100.048 0.489255L100.128 2.88322C96.822 2.55923 93.4868 2.23478 90.1706 2.48161C86.8545 2.72845 83.5152 3.59306 81.0019 5.39279C77.2423 8.0849 75.8692 12.5178 76.3302 16.6046C76.7912 20.6914 78.8383 24.5306 80.9719 28.2394C81.5088 29.1725 82.2513 30.2255 83.4961 30.3443C84.6145 30.4511 85.6379 29.6807 85.9856 28.7981C86.2535 27.8926 86.2432 26.9463 85.9554 26.045C85.6409 24.6674 85.2443 23.2594 85.5401 21.8791C85.8359 20.4988 87.0408 19.1347 88.7293 18.9656C90.4178 18.7964 92.1456 20.3869 91.3338 21.6187L91.75 21.0869Z" fill="#2F2E41"/>
<path d="M477.073 116.13C476.553 115.642 476.17 115.066 475.95 114.442C475.73 113.819 475.678 113.164 475.799 112.522C475.919 111.88 476.209 111.268 476.647 110.729C477.086 110.19 477.663 109.736 478.337 109.4L474.353 93.9637L483.619 96.9555L485.982 111.156C486.591 112.127 486.747 113.248 486.42 114.307C486.094 115.367 485.306 116.291 484.208 116.904C483.11 117.517 481.777 117.777 480.462 117.634C479.147 117.492 477.941 116.956 477.073 116.13V116.13Z" fill="#FFB8B8"/>
<path d="M476.021 104.086L475.971 103.934C470.962 88.666 465.784 72.8832 459.462 55.6985L459.421 55.5859L459.56 55.5189C463.084 53.8245 468.38 53.9373 471.879 55.7811C473.463 56.6218 474.695 57.8434 475.409 59.2804C476.122 60.7174 476.283 62.3004 475.868 63.815L480.479 83.6257C482.353 90.1014 484.293 96.8044 486.147 103.414L486.2 103.601L485.913 103.616C482.537 103.793 479.049 103.976 476.255 104.077L476.021 104.086Z" fill="#FF7D1B"/>
<path d="M433.451 186.258H426.88L423.754 165.374H433.451V186.258Z" fill="#FFB8B8"/>
<path d="M435.127 191.507H413.942V191.286C413.944 189.484 414.814 187.757 416.36 186.483C417.905 185.209 420.001 184.492 422.188 184.49H435.127L435.127 191.507Z" fill="#2F2E41"/>
<path d="M495.363 181.792L489.102 183.436L478.429 164.32L487.668 161.893L495.363 181.792Z" fill="#FFB8B8"/>
<path d="M478.708 191.674L478.626 191.463C477.965 189.746 478.157 187.883 479.161 186.282C480.164 184.681 481.897 183.474 483.98 182.925L496.308 179.688L498.893 186.373L478.708 191.674Z" fill="#2F2E41"/>
<path d="M462.108 41.7071C469.377 41.7071 475.271 36.8507 475.271 30.86C475.271 24.8693 469.377 20.0129 462.108 20.0129C454.838 20.0129 448.945 24.8693 448.945 30.86C448.945 36.8507 454.838 41.7071 462.108 41.7071Z" fill="#FFB8B8"/>
<path d="M468.018 28.8497C468.093 24.4747 465.871 20.1418 462.435 17.9633C460.816 16.9062 458.802 16.3449 456.737 16.3749C454.672 16.405 452.683 17.0247 451.11 18.1282C447.728 20.406 445.61 24.8021 445.79 29.1734C453.368 29.1912 460.946 29.2089 468.018 28.8497Z" fill="#2F2E41"/>
<path d="M437.202 179.536L436.939 179.515C431.223 179.052 425.312 178.575 419.726 178.52L419.422 178.517L419.464 178.269C420.787 170.37 421.348 162.158 421.891 154.217C422.427 146.375 422.98 138.267 424.271 130.566C424.817 128.503 425.349 126.466 425.879 124.435C430.265 107.634 434.409 91.7646 442.962 76.0556L443.043 75.9072L443.239 75.9266C451.264 76.7269 458.975 79.1397 464.952 82.7205L465.067 82.7897L465.062 82.9077C464.946 85.3477 464.827 87.8701 465.004 90.1678C467.716 93.2738 469.514 96.8578 470.254 100.636C470.993 104.414 470.655 108.282 469.266 111.933C471.62 118.414 474.053 125.114 476.535 131.723C482.563 145.342 488.801 159.436 495.196 173.723L495.3 173.957L495.005 174.014C490.405 174.904 485.659 175.822 480.977 176.178L480.8 176.192L480.716 176.063C468.776 157.752 459.067 138.512 451.729 118.625C450.131 122.64 447.83 126.265 445.6 129.776C443.467 132.969 441.591 136.274 439.982 139.669C438.995 146.347 438.733 153.583 438.48 160.579C438.241 167.195 438.015 173.443 437.231 179.319L437.202 179.536Z" fill="#2F2E41"/>
<path d="M457.614 18.164C463.32 17.151 469.631 18.1147 474.111 21.2869C478.592 24.4592 480.867 29.9471 479.026 34.6536C477.186 39.3601 470.936 42.6717 465.286 41.4562C466.904 37.6969 465.083 33.0812 461.126 30.9158C456.433 28.3478 455.141 22.2168 457.614 18.164Z" fill="#2F2E41"/>
<path d="M464.541 83.1922L464.333 83.1139C457.054 80.3774 449.917 78.2776 443.23 76.3619L443.025 76.3254L443.025 75.8355L443.158 75.8737C443.186 75.8228 443.217 75.765 443.249 75.7074C443.34 75.5409 443.403 75.4275 443.456 75.3524L443.454 75.3518C444.012 74.4157 444.455 73.5111 444.883 72.6362C445.326 71.7333 445.782 70.8011 446.372 69.8147C444.942 68.6331 443.963 67.1325 443.556 65.4979C443.149 63.8633 443.331 62.1663 444.08 60.616C445.557 57.7309 449.324 55.4839 453.281 55.1111C454.731 51.8214 457.962 44.9092 457.962 44.9092C457.962 44.9092 464.757 44.7554 467.489 44.4697L467.535 44.465L467.58 44.4732C473.545 45.5503 478.526 50.2019 479.691 55.7852C480.674 60.4974 479.181 65.8874 475.485 70.9624C473.589 73.4442 471.493 75.818 469.21 78.0678C467.545 79.7831 465.973 81.403 464.667 83.0345L464.541 83.1922Z" fill="#FF7D1B"/>
<path d="M477.716 24.5918C473.722 24.1005 470.586 20.7361 471.04 17.4295C471.494 14.1228 475.463 11.4208 479.489 11.6773C483.515 11.9338 486.933 15.1063 486.765 18.4312C486.597 21.7561 482.815 25.2191 477.716 24.5918Z" fill="#2F2E41"/>
<path d="M477.092 22.4477C473.098 21.9564 469.963 18.592 470.417 15.2854C470.615 14.1607 471.155 13.0956 471.987 12.1894C472.82 11.2832 473.917 10.5655 475.177 10.103C471.956 10.684 469.184 12.9969 468.809 15.727C468.355 19.0337 471.491 22.3981 475.485 22.8894C476.973 23.0818 478.497 22.9062 479.864 22.3846C478.952 22.5424 478.013 22.5638 477.092 22.4477Z" fill="#2F2E41"/>
<path d="M399.621 80.7341C400.006 80.1678 400.538 79.678 401.177 79.2992C401.817 78.9204 402.55 78.6619 403.324 78.5417C404.099 78.4216 404.895 78.4428 405.659 78.6039C406.422 78.765 407.133 79.062 407.742 79.474L424.076 71.2352L423.74 79.4316L408.28 85.9988C407.373 86.7958 406.142 87.2907 404.821 87.3897C403.5 87.4887 402.181 87.185 401.113 86.5361C400.046 85.8871 399.304 84.9381 399.029 83.8688C398.754 82.7994 398.965 81.6841 399.621 80.7341V80.7341Z" fill="#FFB8B8"/>
<path d="M413.051 75.9034L413.208 75.8143C429.007 66.8353 445.34 57.5535 462.895 46.916L463.01 46.8463L463.134 46.9323C466.246 49.1055 467.882 53.258 466.938 56.5912C466.504 58.102 465.517 59.4665 464.11 60.4997C462.704 61.5329 460.946 62.1849 459.075 62.3675L437.945 72.5505C431.161 76.1646 424.138 79.9053 417.194 83.548L416.997 83.6513L416.884 83.4332C415.557 80.8691 414.185 78.2201 413.139 76.0826L413.051 75.9034Z" fill="#FF7D1B"/>
</g>
<defs>
<clipPath id="clip0_1_88">
<rect width="567" height="192" fill="white" transform="translate(-12)"/>
</clipPath>
</defs>
</svg>
