<svg width="395" height="358" viewBox="0 0 395 358" fill="none" xmlns="http://www.w3.org/2000/svg">
<g clip-path="url(#clip0_1_9)">
<path d="M356.147 186.309C356.199 230.608 339.743 273.202 310.24 305.138C308.461 307.076 306.635 308.967 304.76 310.811C301.904 313.638 298.952 316.356 295.904 318.964C267.39 343.408 231.793 357.145 194.857 357.957C193.626 357.986 192.391 358 191.151 358C161.693 358 124.643 341.628 91.0192 318.964C88.2373 317.089 85.4803 315.17 82.748 313.208C81.4709 312.3 80.1999 311.378 78.9352 310.444C65.9671 300.916 53.6578 290.452 42.098 279.13C34.5294 271.739 27.4321 263.842 20.8512 255.49C-4.98406 222.33 -10.6824 192.451 26.1501 186.309C30.5109 185.584 34.7433 184.809 38.8471 183.985C44.7916 182.796 50.4807 181.512 55.9143 180.133C63.2334 178.282 70.1098 176.275 76.5435 174.112C78.7076 173.387 80.8222 172.648 82.8873 171.894C113.418 160.736 133.852 146.185 147.761 130.398C150.12 127.726 152.295 125.021 154.286 122.284C157.332 118.119 160.099 113.74 162.566 109.179C165.973 102.841 168.834 96.2032 171.116 89.3416L171.242 88.9647C182.309 55.7466 178.942 24.9351 191.151 14.6227C243.342 -29.4635 308.318 33.3193 338.815 107.357C340.353 111.087 341.799 114.841 343.153 118.616C343.761 120.303 344.348 121.993 344.913 123.686C346.399 128.098 347.748 132.521 348.958 136.955C349.423 138.647 349.865 140.337 350.286 142.025C350.737 143.846 351.169 145.663 351.568 147.48C354.536 160.784 356.147 173.904 356.147 186.309Z" fill="#F2F2F2"/>
<path d="M194.857 357.956C193.626 357.985 192.391 358 191.151 358C161.693 358 124.643 341.628 91.0192 318.964C88.2373 317.089 85.4803 315.17 82.748 313.208L85.1444 298.034L157.69 288.012L194.1 316.982L194.857 357.956Z" fill="#2F2E41"/>
<path d="M198.349 87.0076H188.012C187.691 87.0077 187.384 87.1401 187.158 87.3757C186.932 87.6113 186.804 87.9308 186.804 88.2639V99.0257C186.804 99.1904 186.836 99.3535 186.896 99.5056C186.957 99.6577 187.046 99.7958 187.158 99.9121C187.271 100.028 187.404 100.12 187.55 100.183C187.696 100.246 187.853 100.278 188.012 100.277H198.349C198.669 100.277 198.975 100.146 199.202 99.9112C199.428 99.6766 199.556 99.3582 199.557 99.0257V88.2639C199.556 87.931 199.428 87.612 199.202 87.3766C198.976 87.1412 198.669 87.0085 198.349 87.0076Z" fill="white"/>
<path d="M198.349 105.347H188.012C187.691 105.347 187.384 105.479 187.158 105.715C186.932 105.95 186.804 106.27 186.804 106.603V117.365C186.804 117.53 186.836 117.693 186.896 117.845C186.957 117.997 187.046 118.135 187.158 118.251C187.271 118.367 187.404 118.46 187.55 118.522C187.696 118.585 187.853 118.617 188.012 118.616H198.349C198.669 118.617 198.975 118.485 199.202 118.25C199.428 118.016 199.556 117.697 199.557 117.365V106.603C199.556 106.27 199.428 105.951 199.202 105.716C198.976 105.48 198.669 105.348 198.349 105.347Z" fill="#E6E6E6"/>
<path d="M198.349 123.686H188.012C187.691 123.686 187.384 123.818 187.158 124.054C186.932 124.289 186.804 124.609 186.804 124.942V135.699C186.804 135.864 186.835 136.028 186.895 136.18C186.956 136.333 187.045 136.471 187.157 136.588C187.269 136.705 187.403 136.797 187.549 136.86C187.696 136.923 187.853 136.956 188.012 136.955H198.349C198.67 136.955 198.977 136.823 199.203 136.587C199.429 136.352 199.557 136.032 199.557 135.699V124.942C199.556 124.609 199.428 124.29 199.202 124.055C198.976 123.819 198.669 123.687 198.349 123.686Z" fill="#E6E6E6"/>
<path d="M199.538 143.059C199.487 142.769 199.34 142.508 199.123 142.319C198.906 142.13 198.632 142.026 198.349 142.025H188.012C187.691 142.025 187.384 142.157 187.158 142.393C186.932 142.628 186.804 142.948 186.804 143.281V154.038C186.804 154.203 186.835 154.367 186.895 154.519C186.956 154.672 187.045 154.811 187.157 154.927C187.269 155.044 187.403 155.137 187.549 155.2C187.696 155.263 187.853 155.295 188.012 155.295H198.349C198.67 155.294 198.977 155.162 199.203 154.926C199.429 154.691 199.557 154.371 199.557 154.038V143.281C199.558 143.207 199.552 143.132 199.538 143.059Z" fill="#E6E6E6"/>
<path d="M198.818 160.46C198.67 160.396 198.51 160.363 198.349 160.364H188.012C187.853 160.363 187.696 160.396 187.549 160.459C187.403 160.522 187.269 160.614 187.157 160.731C187.045 160.848 186.956 160.986 186.895 161.139C186.835 161.291 186.804 161.455 186.804 161.62V172.377C186.803 172.542 186.834 172.706 186.895 172.859C186.955 173.012 187.044 173.15 187.156 173.267C187.268 173.384 187.402 173.477 187.549 173.539C187.695 173.602 187.853 173.634 188.012 173.634H198.349C198.67 173.633 198.977 173.501 199.203 173.265C199.429 173.03 199.557 172.71 199.557 172.377V161.62C199.556 161.373 199.486 161.131 199.355 160.925C199.224 160.719 199.037 160.557 198.818 160.46Z" fill="#E6E6E6"/>
<path d="M220.065 87.0076H209.727C209.407 87.0077 209.1 87.1401 208.874 87.3757C208.647 87.6113 208.52 87.9308 208.52 88.2639V99.0257C208.52 99.1904 208.552 99.3535 208.612 99.5056C208.673 99.6577 208.762 99.7958 208.874 99.9121C208.986 100.028 209.12 100.12 209.266 100.183C209.412 100.246 209.569 100.278 209.727 100.277H220.065C220.385 100.277 220.691 100.146 220.918 99.9112C221.144 99.6766 221.272 99.3582 221.273 99.0257V88.2639C221.272 87.931 221.144 87.612 220.918 87.3766C220.692 87.1412 220.385 87.0085 220.065 87.0076Z" fill="#E6E6E6"/>
<path d="M220.065 105.347H209.727C209.407 105.347 209.1 105.479 208.874 105.715C208.647 105.95 208.52 106.27 208.52 106.603V117.365C208.52 117.53 208.552 117.693 208.612 117.845C208.673 117.997 208.762 118.135 208.874 118.251C208.986 118.367 209.12 118.46 209.266 118.522C209.412 118.585 209.569 118.617 209.727 118.616H220.065C220.385 118.617 220.691 118.485 220.918 118.25C221.144 118.016 221.272 117.697 221.273 117.365V106.603C221.272 106.27 221.144 105.951 220.918 105.716C220.692 105.48 220.385 105.348 220.065 105.347Z" fill="#FF7D1B"/>
<path d="M220.065 123.686H209.727C209.407 123.686 209.1 123.818 208.874 124.054C208.647 124.289 208.52 124.609 208.52 124.942V135.699C208.52 135.864 208.551 136.028 208.611 136.18C208.672 136.333 208.761 136.471 208.873 136.588C208.985 136.705 209.118 136.797 209.265 136.86C209.412 136.923 209.569 136.956 209.727 136.955H220.065C220.385 136.955 220.693 136.823 220.919 136.587C221.145 136.352 221.273 136.032 221.273 135.699V124.942C221.272 124.609 221.144 124.29 220.918 124.055C220.692 123.819 220.385 123.687 220.065 123.686Z" fill="#FF7D1B"/>
<path d="M220.065 142.025H209.727C209.474 142.025 209.228 142.108 209.023 142.263C208.817 142.417 208.664 142.635 208.585 142.885C208.542 143.012 208.52 143.146 208.52 143.281V154.038C208.52 154.203 208.551 154.367 208.611 154.519C208.672 154.672 208.761 154.811 208.873 154.927C208.985 155.044 209.118 155.137 209.265 155.2C209.412 155.263 209.569 155.295 209.727 155.295H220.065C220.385 155.294 220.693 155.162 220.919 154.926C221.145 154.691 221.273 154.371 221.273 154.038V143.281C221.272 142.948 221.144 142.629 220.918 142.394C220.692 142.158 220.385 142.026 220.065 142.025Z" fill="#FF7D1B"/>
<path d="M220.065 160.364H209.727C209.569 160.363 209.412 160.396 209.265 160.459C209.118 160.522 208.985 160.614 208.873 160.731C208.761 160.848 208.672 160.986 208.611 161.139C208.551 161.291 208.52 161.455 208.52 161.62V172.377C208.52 172.542 208.551 172.706 208.611 172.858C208.672 173.011 208.761 173.15 208.873 173.266C208.985 173.383 209.118 173.476 209.265 173.539C209.412 173.602 209.569 173.634 209.727 173.634H220.065C220.386 173.633 220.693 173.501 220.919 173.265C221.145 173.03 221.273 172.71 221.273 172.377V161.62C221.273 161.287 221.145 160.967 220.919 160.732C220.693 160.496 220.385 160.364 220.065 160.364Z" fill="#E6E6E6"/>
<path d="M241.781 87.0076H231.443C231.123 87.0077 230.816 87.1401 230.59 87.3757C230.363 87.6113 230.236 87.9308 230.236 88.2639V99.0257C230.236 99.1904 230.268 99.3535 230.328 99.5056C230.389 99.6577 230.478 99.7958 230.59 99.9121C230.702 100.028 230.836 100.12 230.982 100.183C231.128 100.246 231.285 100.278 231.443 100.277H241.781C242.101 100.277 242.407 100.146 242.634 99.9112C242.86 99.6766 242.988 99.3582 242.989 99.0257V88.2639C242.988 87.931 242.86 87.612 242.634 87.3766C242.408 87.1412 242.101 87.0085 241.781 87.0076Z" fill="#FF7D1B"/>
<path d="M241.781 105.347H231.443C231.123 105.347 230.816 105.479 230.59 105.715C230.363 105.95 230.236 106.27 230.236 106.603V117.365C230.236 117.53 230.268 117.693 230.328 117.845C230.389 117.997 230.478 118.135 230.59 118.251C230.702 118.367 230.836 118.46 230.982 118.522C231.128 118.585 231.285 118.617 231.443 118.616H241.781C242.101 118.617 242.407 118.485 242.634 118.25C242.86 118.016 242.988 117.697 242.989 117.365V106.603C242.988 106.27 242.86 105.951 242.634 105.716C242.408 105.48 242.101 105.348 241.781 105.347Z" fill="#FF7D1B"/>
<path d="M241.781 123.686H231.443C231.123 123.686 230.816 123.818 230.59 124.054C230.363 124.289 230.236 124.609 230.236 124.942V135.699C230.236 135.864 230.267 136.028 230.327 136.18C230.388 136.333 230.477 136.471 230.589 136.588C230.701 136.705 230.834 136.797 230.981 136.86C231.128 136.923 231.285 136.956 231.443 136.955H241.781C242.101 136.955 242.408 136.823 242.635 136.587C242.861 136.352 242.989 136.032 242.989 135.699V124.942C242.988 124.609 242.86 124.29 242.634 124.055C242.408 123.819 242.101 123.687 241.781 123.686Z" fill="#E6E6E6"/>
<path d="M241.781 142.025H231.443C231.123 142.025 230.816 142.157 230.59 142.393C230.363 142.628 230.236 142.948 230.236 143.281V154.038C230.236 154.203 230.267 154.367 230.327 154.519C230.388 154.672 230.477 154.811 230.589 154.927C230.701 155.044 230.834 155.137 230.981 155.2C231.128 155.263 231.285 155.295 231.443 155.295H241.781C242.101 155.294 242.408 155.162 242.635 154.926C242.861 154.691 242.989 154.371 242.989 154.038V143.281C242.988 142.948 242.86 142.629 242.634 142.394C242.408 142.158 242.101 142.026 241.781 142.025Z" fill="#FF7D1B"/>
<path d="M241.781 160.364H231.443C231.285 160.363 231.128 160.396 230.981 160.459C230.834 160.522 230.701 160.614 230.589 160.731C230.477 160.848 230.388 160.986 230.327 161.139C230.267 161.291 230.236 161.455 230.236 161.62V172.377C230.236 172.542 230.267 172.706 230.327 172.858C230.388 173.011 230.477 173.15 230.589 173.266C230.701 173.383 230.834 173.476 230.981 173.539C231.128 173.602 231.285 173.634 231.443 173.634H241.781C242.101 173.633 242.408 173.501 242.635 173.265C242.861 173.03 242.989 172.71 242.989 172.377V161.62C242.989 161.287 242.861 160.967 242.635 160.732C242.408 160.496 242.101 160.364 241.781 160.364Z" fill="#FF7D1B"/>
<path d="M263.497 87.0076H253.159C252.839 87.0077 252.532 87.1401 252.306 87.3757C252.079 87.6113 251.952 87.9308 251.952 88.2639V99.0257C251.952 99.1904 251.983 99.3535 252.044 99.5056C252.105 99.6577 252.194 99.7958 252.306 99.9121C252.418 100.028 252.551 100.12 252.698 100.183C252.844 100.246 253.001 100.278 253.159 100.277H263.497C263.817 100.277 264.123 100.146 264.349 99.9112C264.576 99.6766 264.704 99.3582 264.705 99.0257V88.2639C264.704 87.931 264.576 87.612 264.35 87.3766C264.124 87.1412 263.817 87.0085 263.497 87.0076Z" fill="#FF7D1B"/>
<path d="M263.497 105.347H253.159C252.839 105.347 252.532 105.479 252.306 105.715C252.079 105.95 251.952 106.27 251.952 106.603V117.365C251.952 117.53 251.983 117.693 252.044 117.845C252.105 117.997 252.194 118.135 252.306 118.251C252.418 118.367 252.551 118.46 252.698 118.522C252.844 118.585 253.001 118.617 253.159 118.616H263.497C263.817 118.617 264.123 118.485 264.349 118.25C264.576 118.016 264.704 117.697 264.705 117.365V106.603C264.704 106.27 264.576 105.951 264.35 105.716C264.124 105.48 263.817 105.348 263.497 105.347Z" fill="white"/>
<path d="M263.497 123.686H253.159C252.839 123.686 252.532 123.818 252.306 124.054C252.079 124.289 251.952 124.609 251.952 124.942V135.699C251.952 135.864 251.983 136.028 252.043 136.18C252.104 136.333 252.193 136.471 252.305 136.588C252.417 136.705 252.55 136.797 252.697 136.86C252.843 136.923 253.001 136.956 253.159 136.955H263.497C263.817 136.955 264.124 136.823 264.351 136.587C264.577 136.352 264.704 136.032 264.705 135.699V124.942C264.704 124.609 264.576 124.29 264.35 124.055C264.124 123.819 263.817 123.687 263.497 123.686Z" fill="white"/>
<path d="M263.497 142.025H253.159C252.839 142.025 252.532 142.157 252.306 142.393C252.079 142.628 251.952 142.948 251.952 143.281V154.038C251.952 154.203 251.983 154.367 252.043 154.519C252.104 154.672 252.193 154.811 252.305 154.927C252.417 155.044 252.55 155.137 252.697 155.2C252.843 155.263 253.001 155.295 253.159 155.295H263.497C263.817 155.294 264.124 155.162 264.351 154.926C264.577 154.691 264.704 154.371 264.705 154.038V143.281C264.704 142.948 264.576 142.629 264.35 142.394C264.124 142.158 263.817 142.026 263.497 142.025Z" fill="#E6E6E6"/>
<path d="M263.497 160.364H253.159C253.001 160.363 252.843 160.396 252.697 160.459C252.55 160.522 252.417 160.614 252.305 160.731C252.193 160.848 252.104 160.986 252.043 161.139C251.983 161.291 251.952 161.455 251.952 161.62V172.377C251.952 172.542 251.983 172.706 252.043 172.858C252.104 173.011 252.193 173.15 252.305 173.266C252.417 173.383 252.55 173.476 252.697 173.539C252.843 173.602 253.001 173.634 253.159 173.634H263.497C263.817 173.633 264.124 173.501 264.351 173.265C264.577 173.03 264.704 172.71 264.705 172.377V161.62C264.704 161.287 264.577 160.967 264.351 160.732C264.124 160.496 263.817 160.364 263.497 160.364Z" fill="#FF7D1B"/>
<path d="M285.213 87.0076H274.871C274.551 87.0087 274.245 87.1416 274.02 87.3771C273.794 87.6126 273.668 87.9315 273.668 88.2639V99.0257C273.668 99.3576 273.795 99.676 274.02 99.9107C274.246 100.145 274.552 100.277 274.871 100.277H285.213C285.532 100.277 285.839 100.146 286.065 99.9112C286.292 99.6766 286.419 99.3582 286.42 99.0257V88.2639C286.42 87.931 286.292 87.612 286.066 87.3766C285.839 87.1412 285.533 87.0085 285.213 87.0076Z" fill="white"/>
<path d="M285.213 105.347H274.871C274.551 105.348 274.245 105.481 274.02 105.716C273.794 105.952 273.668 106.271 273.668 106.603V117.365C273.668 117.697 273.795 118.015 274.02 118.25C274.246 118.485 274.552 118.616 274.871 118.616H285.213C285.532 118.617 285.839 118.485 286.065 118.25C286.292 118.016 286.419 117.697 286.42 117.365V106.603C286.42 106.27 286.292 105.951 286.066 105.716C285.84 105.48 285.533 105.348 285.213 105.347Z" fill="white"/>
<path d="M285.213 123.686H274.871C274.551 123.687 274.245 123.82 274.02 124.055C273.794 124.291 273.668 124.61 273.668 124.942V135.699C273.667 135.864 273.698 136.027 273.758 136.179C273.819 136.332 273.907 136.47 274.019 136.587C274.131 136.703 274.263 136.796 274.409 136.859C274.556 136.923 274.712 136.955 274.871 136.955H285.213C285.533 136.955 285.84 136.823 286.067 136.587C286.293 136.352 286.42 136.032 286.42 135.699V124.942C286.42 124.609 286.292 124.29 286.066 124.055C285.84 123.819 285.533 123.687 285.213 123.686Z" fill="white"/>
<path d="M285.213 142.025H274.871C274.551 142.026 274.245 142.159 274.02 142.394C273.794 142.63 273.668 142.949 273.668 143.281V154.038C273.667 154.203 273.698 154.366 273.758 154.518C273.819 154.671 273.907 154.809 274.019 154.926C274.13 155.043 274.263 155.135 274.409 155.198C274.556 155.262 274.712 155.294 274.871 155.295H285.213C285.533 155.294 285.84 155.162 286.067 154.926C286.293 154.691 286.42 154.371 286.42 154.038V143.281C286.42 142.948 286.292 142.629 286.066 142.394C285.84 142.158 285.533 142.026 285.213 142.025Z" fill="#FF7D1B"/>
<path d="M285.213 160.364H274.871C274.712 160.364 274.556 160.396 274.409 160.46C274.263 160.523 274.13 160.616 274.019 160.732C273.907 160.849 273.819 160.988 273.758 161.14C273.698 161.292 273.667 161.455 273.668 161.62V172.377C273.667 172.542 273.698 172.705 273.758 172.857C273.819 173.01 273.907 173.148 274.019 173.265C274.13 173.382 274.263 173.474 274.409 173.537C274.556 173.601 274.712 173.633 274.871 173.634H285.213C285.533 173.633 285.84 173.501 286.067 173.265C286.293 173.03 286.42 172.71 286.42 172.377V161.62C286.42 161.287 286.293 160.967 286.067 160.732C285.84 160.496 285.533 160.364 285.213 160.364Z" fill="#E6E6E6"/>
<path d="M306.929 87.0076H296.586C296.267 87.0087 295.961 87.1416 295.736 87.3771C295.51 87.6126 295.383 87.9315 295.384 88.2639V99.0257C295.384 99.3576 295.51 99.676 295.736 99.9107C295.962 100.145 296.267 100.277 296.586 100.277H306.929C307.248 100.277 307.555 100.146 307.781 99.9112C308.008 99.6766 308.135 99.3582 308.136 99.0257V88.2639C308.135 87.931 308.008 87.612 307.782 87.3766C307.555 87.1412 307.249 87.0085 306.929 87.0076Z" fill="white"/>
<path d="M306.929 105.347H296.586C296.267 105.348 295.961 105.481 295.735 105.716C295.51 105.952 295.383 106.271 295.384 106.603V117.365C295.384 117.697 295.51 118.015 295.736 118.25C295.962 118.485 296.267 118.616 296.586 118.616H306.929C307.248 118.617 307.555 118.485 307.781 118.25C308.008 118.016 308.135 117.697 308.136 117.365V106.603C308.135 106.27 308.008 105.951 307.782 105.716C307.555 105.48 307.249 105.348 306.929 105.347Z" fill="white"/>
<path d="M306.929 123.686H296.586C296.267 123.687 295.961 123.82 295.735 124.055C295.51 124.291 295.383 124.61 295.384 124.942V135.699C295.383 135.864 295.414 136.027 295.474 136.179C295.534 136.332 295.623 136.47 295.735 136.587C295.846 136.703 295.979 136.796 296.125 136.859C296.271 136.923 296.428 136.955 296.586 136.955H306.929C307.249 136.955 307.556 136.823 307.783 136.587C308.009 136.352 308.136 136.032 308.136 135.699V124.942C308.135 124.609 308.008 124.29 307.782 124.055C307.555 123.819 307.249 123.687 306.929 123.686Z" fill="#FF7D1B"/>
<path d="M306.929 142.025H296.586C296.267 142.026 295.961 142.159 295.736 142.394C295.51 142.63 295.384 142.949 295.384 143.281V154.038C295.383 154.203 295.414 154.366 295.474 154.518C295.534 154.671 295.623 154.809 295.735 154.926C295.846 155.043 295.979 155.135 296.125 155.198C296.271 155.262 296.428 155.294 296.586 155.295H306.929C307.249 155.294 307.556 155.162 307.783 154.926C308.009 154.691 308.136 154.371 308.136 154.038V143.281C308.135 142.948 308.008 142.629 307.782 142.394C307.555 142.158 307.249 142.026 306.929 142.025Z" fill="#E6E6E6"/>
<path d="M306.929 160.364H296.586C296.428 160.364 296.271 160.396 296.125 160.46C295.979 160.523 295.846 160.616 295.735 160.732C295.623 160.849 295.534 160.988 295.474 161.14C295.414 161.292 295.383 161.455 295.384 161.62V172.377C295.383 172.542 295.414 172.705 295.474 172.857C295.534 173.01 295.623 173.148 295.735 173.265C295.846 173.382 295.979 173.474 296.125 173.537C296.271 173.601 296.428 173.633 296.586 173.634H306.929C307.249 173.633 307.556 173.501 307.783 173.265C308.009 173.03 308.136 172.71 308.136 172.377V161.62C308.136 161.287 308.009 160.967 307.783 160.732C307.556 160.496 307.249 160.364 306.929 160.364Z" fill="white"/>
<path d="M328.645 87.0076H318.302C317.983 87.0087 317.677 87.1416 317.451 87.3771C317.226 87.6126 317.099 87.9315 317.099 88.2639V99.0257C317.1 99.3576 317.226 99.676 317.452 99.9107C317.677 100.145 317.983 100.277 318.302 100.277H328.645C328.964 100.277 329.271 100.146 329.497 99.9112C329.723 99.6766 329.851 99.3582 329.852 99.0257V88.2639C329.851 87.931 329.724 87.612 329.498 87.3766C329.271 87.1412 328.965 87.0085 328.645 87.0076Z" fill="#FF7D1B"/>
<path d="M328.645 105.347H318.302C317.983 105.348 317.677 105.481 317.451 105.716C317.226 105.952 317.099 106.271 317.099 106.603V117.365C317.1 117.697 317.226 118.015 317.452 118.25C317.677 118.485 317.983 118.616 318.302 118.616H328.645C328.964 118.617 329.271 118.485 329.497 118.25C329.723 118.016 329.851 117.697 329.852 117.365V106.603C329.851 106.27 329.724 105.951 329.498 105.716C329.271 105.48 328.965 105.348 328.645 105.347Z" fill="#FF7D1B"/>
<path d="M328.645 123.686H318.302C317.983 123.687 317.677 123.82 317.451 124.055C317.226 124.291 317.099 124.61 317.099 124.942V135.699C317.099 135.864 317.13 136.027 317.19 136.179C317.25 136.332 317.339 136.47 317.451 136.587C317.562 136.703 317.695 136.796 317.841 136.859C317.987 136.923 318.144 136.955 318.302 136.955H328.645C328.965 136.955 329.272 136.823 329.498 136.587C329.725 136.352 329.852 136.032 329.852 135.699V124.942C329.851 124.609 329.724 124.29 329.498 124.055C329.271 123.819 328.965 123.687 328.645 123.686Z" fill="#E6E6E6"/>
<path d="M328.645 142.025H318.302C317.983 142.026 317.677 142.159 317.451 142.394C317.226 142.63 317.099 142.949 317.099 143.281V154.038C317.099 154.203 317.13 154.366 317.19 154.518C317.25 154.671 317.339 154.809 317.451 154.926C317.562 155.043 317.695 155.135 317.841 155.198C317.987 155.262 318.144 155.294 318.302 155.295H328.645C328.965 155.294 329.272 155.162 329.498 154.926C329.725 154.691 329.852 154.371 329.852 154.038V143.281C329.851 142.948 329.724 142.629 329.498 142.394C329.271 142.158 328.965 142.026 328.645 142.025Z" fill="white"/>
<path d="M328.645 160.364H318.302C318.144 160.364 317.987 160.396 317.841 160.46C317.695 160.523 317.562 160.616 317.451 160.732C317.339 160.849 317.25 160.988 317.19 161.14C317.13 161.292 317.099 161.455 317.099 161.62V172.377C317.099 172.542 317.13 172.705 317.19 172.857C317.25 173.01 317.339 173.148 317.451 173.265C317.562 173.382 317.695 173.474 317.841 173.537C317.987 173.601 318.144 173.633 318.302 173.634H328.645C328.965 173.633 329.272 173.501 329.498 173.265C329.725 173.03 329.852 172.71 329.852 172.377V161.62C329.852 161.287 329.725 160.967 329.498 160.732C329.272 160.496 328.965 160.364 328.645 160.364Z" fill="#FF7D1B"/>
<path d="M350.361 87.0076H340.018C339.699 87.0087 339.393 87.1416 339.167 87.3771C338.942 87.6126 338.815 87.9315 338.815 88.2639V99.0257C338.815 99.3576 338.942 99.676 339.168 99.9107C339.393 100.145 339.699 100.277 340.018 100.277H350.361C350.68 100.277 350.987 100.146 351.213 99.9112C351.439 99.6766 351.567 99.3581 351.568 99.0257V88.2639C351.567 87.931 351.44 87.612 351.213 87.3766C350.987 87.1412 350.681 87.0085 350.361 87.0076Z" fill="#FF7D1B"/>
<path d="M350.361 105.347H340.018C339.699 105.348 339.393 105.481 339.167 105.716C338.942 105.952 338.815 106.271 338.815 106.603V117.365C338.815 117.697 338.942 118.015 339.168 118.25C339.393 118.485 339.699 118.616 340.018 118.616H350.361C350.68 118.617 350.987 118.485 351.213 118.25C351.439 118.016 351.567 117.697 351.568 117.365V106.603C351.567 106.27 351.44 105.951 351.213 105.716C350.987 105.48 350.681 105.348 350.361 105.347Z" fill="#FF7D1B"/>
<path d="M350.361 123.686H340.018C339.699 123.687 339.393 123.82 339.167 124.055C338.942 124.291 338.815 124.61 338.815 124.942V135.699C338.815 135.864 338.846 136.027 338.906 136.179C338.966 136.332 339.055 136.47 339.166 136.587C339.278 136.703 339.411 136.796 339.557 136.859C339.703 136.923 339.86 136.955 340.018 136.955H350.361C350.681 136.955 350.988 136.823 351.214 136.587C351.441 136.352 351.568 136.032 351.568 135.699V124.942C351.567 124.609 351.44 124.29 351.214 124.055C350.987 123.819 350.681 123.687 350.361 123.686Z" fill="#E6E6E6"/>
<path d="M350.361 142.025H340.018C339.699 142.026 339.393 142.159 339.167 142.394C338.942 142.63 338.815 142.949 338.815 143.281V154.038C338.815 154.203 338.846 154.366 338.906 154.518C338.966 154.671 339.055 154.809 339.166 154.926C339.278 155.043 339.411 155.135 339.557 155.198C339.703 155.262 339.86 155.294 340.018 155.295H350.361C350.681 155.294 350.988 155.162 351.214 154.926C351.441 154.691 351.568 154.371 351.568 154.038V143.281C351.567 142.948 351.44 142.629 351.213 142.394C350.987 142.158 350.681 142.026 350.361 142.025Z" fill="#FF7D1B"/>
<path d="M350.361 160.364H340.018C339.86 160.364 339.703 160.396 339.557 160.46C339.411 160.523 339.278 160.616 339.166 160.732C339.055 160.849 338.966 160.988 338.906 161.14C338.846 161.292 338.815 161.455 338.815 161.62V172.377C338.815 172.542 338.846 172.705 338.906 172.857C338.966 173.01 339.055 173.148 339.166 173.265C339.278 173.382 339.411 173.474 339.557 173.537C339.703 173.601 339.86 173.633 340.018 173.634H350.361C350.681 173.633 350.988 173.501 351.214 173.265C351.441 173.03 351.568 172.71 351.568 172.377V161.62C351.568 161.287 351.441 160.967 351.214 160.732C350.988 160.496 350.681 160.364 350.361 160.364Z" fill="#FF7D1B"/>
<path d="M372.077 87.0076H361.734C361.415 87.0087 361.109 87.1416 360.883 87.3771C360.658 87.6126 360.531 87.9315 360.531 88.2639V99.0257C360.531 99.3576 360.658 99.676 360.884 99.9107C361.109 100.145 361.415 100.277 361.734 100.277H372.077C372.396 100.277 372.703 100.146 372.929 99.9112C373.155 99.6766 373.283 99.3581 373.284 99.0257V88.2639C373.283 87.931 373.156 87.612 372.929 87.3766C372.703 87.1412 372.397 87.0085 372.077 87.0076Z" fill="#E6E6E6"/>
<path d="M372.077 105.347H361.734C361.415 105.348 361.109 105.481 360.883 105.716C360.658 105.952 360.531 106.271 360.531 106.603V117.365C360.531 117.697 360.658 118.015 360.884 118.25C361.109 118.485 361.415 118.616 361.734 118.616H372.077C372.396 118.617 372.703 118.485 372.929 118.25C373.155 118.016 373.283 117.697 373.284 117.365V106.603C373.283 106.27 373.156 105.951 372.929 105.716C372.703 105.48 372.397 105.348 372.077 105.347Z" fill="#FF7D1B"/>
<path d="M372.077 123.686H361.734C361.415 123.687 361.109 123.82 360.883 124.055C360.658 124.291 360.531 124.61 360.531 124.942V135.699C360.531 135.864 360.562 136.027 360.622 136.179C360.682 136.332 360.771 136.47 360.882 136.587C360.994 136.703 361.127 136.796 361.273 136.859C361.419 136.923 361.576 136.955 361.734 136.955H372.077C372.397 136.955 372.704 136.823 372.93 136.587C373.157 136.352 373.284 136.032 373.284 135.699V124.942C373.283 124.609 373.156 124.29 372.929 124.055C372.703 123.819 372.397 123.687 372.077 123.686Z" fill="#FF7D1B"/>
<path d="M372.077 142.025H361.734C361.415 142.026 361.109 142.159 360.883 142.394C360.658 142.63 360.531 142.949 360.531 143.281V154.038C360.531 154.203 360.562 154.366 360.622 154.518C360.682 154.671 360.771 154.809 360.882 154.926C360.994 155.043 361.127 155.135 361.273 155.198C361.419 155.262 361.576 155.294 361.734 155.295H372.077C372.397 155.294 372.704 155.162 372.93 154.926C373.157 154.691 373.284 154.371 373.284 154.038V143.281C373.283 142.948 373.156 142.629 372.929 142.394C372.703 142.158 372.397 142.026 372.077 142.025Z" fill="#FF7D1B"/>
<path d="M372.077 160.364H361.734C361.576 160.364 361.419 160.396 361.273 160.46C361.127 160.523 360.994 160.616 360.882 160.732C360.771 160.849 360.682 160.988 360.622 161.14C360.562 161.292 360.531 161.455 360.531 161.62V172.377C360.531 172.542 360.562 172.705 360.622 172.857C360.682 173.01 360.771 173.148 360.882 173.265C360.994 173.382 361.127 173.474 361.273 173.537C361.419 173.601 361.576 173.633 361.734 173.634H372.077C372.397 173.633 372.704 173.501 372.93 173.265C373.157 173.03 373.284 172.71 373.284 172.377V161.62C373.284 161.287 373.157 160.967 372.93 160.732C372.704 160.496 372.397 160.364 372.077 160.364Z" fill="#E6E6E6"/>
<path d="M393.793 87.0076H383.45C383.131 87.0087 382.825 87.1416 382.599 87.3771C382.374 87.6126 382.247 87.9315 382.247 88.2639V99.0257C382.247 99.3577 382.374 99.676 382.6 99.9107C382.825 100.145 383.131 100.277 383.45 100.277H393.793C394.112 100.277 394.419 100.146 394.645 99.9112C394.871 99.6766 394.999 99.3581 395 99.0257V88.2639C394.999 87.931 394.872 87.612 394.645 87.3766C394.419 87.1412 394.112 87.0085 393.793 87.0076Z" fill="#E6E6E6"/>
<path d="M393.793 105.347H383.45C383.131 105.348 382.825 105.481 382.599 105.716C382.374 105.952 382.247 106.271 382.247 106.603V117.365C382.247 117.697 382.374 118.015 382.6 118.25C382.825 118.485 383.131 118.616 383.45 118.616H393.793C394.112 118.617 394.419 118.485 394.645 118.25C394.871 118.016 394.999 117.697 395 117.365V106.603C394.999 106.27 394.872 105.951 394.645 105.716C394.419 105.48 394.112 105.348 393.793 105.347Z" fill="#E6E6E6"/>
<path d="M393.793 123.686H383.45C383.131 123.687 382.825 123.82 382.599 124.055C382.374 124.291 382.247 124.61 382.247 124.942V135.699C382.247 135.864 382.278 136.027 382.338 136.179C382.398 136.332 382.487 136.47 382.598 136.587C382.71 136.703 382.843 136.796 382.989 136.859C383.135 136.923 383.292 136.955 383.45 136.955H393.793C394.113 136.955 394.42 136.823 394.646 136.587C394.873 136.352 395 136.032 395 135.699V124.942C394.999 124.609 394.872 124.29 394.645 124.055C394.419 123.819 394.113 123.687 393.793 123.686Z" fill="#FF7D1B"/>
<path d="M393.793 142.025H383.45C383.131 142.026 382.825 142.159 382.599 142.394C382.374 142.63 382.247 142.949 382.247 143.281V154.038C382.247 154.203 382.278 154.366 382.338 154.518C382.398 154.671 382.487 154.809 382.598 154.926C382.71 155.043 382.843 155.135 382.989 155.198C383.135 155.262 383.292 155.294 383.45 155.295H393.793C394.113 155.294 394.42 155.162 394.646 154.926C394.873 154.691 395 154.371 395 154.038V143.281C394.999 142.948 394.872 142.629 394.645 142.394C394.419 142.158 394.112 142.026 393.793 142.025Z" fill="#E6E6E6"/>
<path d="M393.793 160.364H383.45C383.292 160.364 383.135 160.396 382.989 160.46C382.843 160.523 382.71 160.616 382.598 160.732C382.487 160.849 382.398 160.988 382.338 161.14C382.278 161.292 382.247 161.455 382.247 161.62V172.377C382.247 172.542 382.278 172.705 382.338 172.857C382.398 173.01 382.487 173.148 382.598 173.265C382.71 173.382 382.843 173.474 382.989 173.537C383.135 173.601 383.292 173.633 383.45 173.634H393.793C394.113 173.633 394.42 173.501 394.646 173.265C394.873 173.03 395 172.71 395 172.377V161.62C395 161.287 394.873 160.967 394.646 160.732C394.42 160.496 394.113 160.364 393.793 160.364Z" fill="#E6E6E6"/>
<path d="M156.087 318.964H155.799L156.045 318.931L156.087 318.964Z" fill="#2F2E41"/>
<path d="M131.342 118.421C148.866 118.421 163.072 103.639 163.072 85.4047C163.072 67.1704 148.866 52.3887 131.342 52.3887C113.819 52.3887 99.6129 67.1704 99.6129 85.4047C99.6129 103.639 113.819 118.421 131.342 118.421Z" fill="#FFB6B6"/>
<path d="M159.129 61.198C159.129 61.198 167.428 44.69 149.17 43.1892C149.17 43.1892 133.605 28.4976 117.741 40.5034C117.741 40.5034 109.087 40.5034 104.355 50.6929C104.355 50.6929 97.5491 48.007 96.0535 55.195C96.0535 55.195 91.0734 70.2024 96.0535 83.7089C101.034 97.2155 102.688 98.7162 102.688 98.7162C102.688 98.7162 94.5044 70.399 114.423 68.8982C134.342 67.3974 156.632 54.4447 158.292 70.9527C159.952 87.4606 162.45 91.5281 162.45 91.5281C162.45 91.5281 178.217 67.9513 159.129 61.198Z" fill="#2F2E41"/>
<path d="M213.42 166.771L213.317 167.332L212.17 173.634L204.243 217.222L203.774 219.788L202.789 225.215L201.442 232.618L198.456 249.024L197.602 253.726L197.281 255.49L197.17 256.108L196.283 260.975L196.013 262.444L193.849 279.13L191.959 293.671L198.284 300.253L194.513 304.176L192.038 318.93L192.043 318.964H91.0192C86.9323 316.209 82.9043 313.369 78.9352 310.444L79.7665 303.969C79.7665 303.969 82.6272 292.405 81.4244 291.023C80.2263 289.641 77.5976 287.171 77.5976 287.171L80.9089 279.13L81.3687 278.014L80.5978 261.376L80.5792 260.975L80.3238 255.49L80.2913 254.784L80.2402 253.726L79.2603 232.618L79.2417 232.27L78.9445 225.872L78.6658 219.788L78.5451 217.222L77.3516 191.547L76.5435 174.112L75.8376 158.933L78.6751 157.933L109.025 147.2L121.596 130.195L147.761 130.398L160.57 130.499L181.942 151.124L186.804 153.54L186.841 153.56L190.329 155.294L199.171 159.687L208.52 164.336L213.317 166.718L213.42 166.771Z" fill="#CACACA"/>
<path d="M124.977 269.432C123.06 270.205 121.003 270.531 118.951 270.387C116.9 270.244 114.904 269.634 113.103 268.6C111.303 267.567 109.742 266.135 108.531 264.406C107.319 262.677 106.487 260.693 106.093 258.593L56.6054 251.287L73.8085 231.039L118.165 241.08C121.599 240.625 125.075 241.495 127.933 243.528C130.791 245.56 132.834 248.613 133.673 252.108C134.513 255.602 134.092 259.296 132.489 262.489C130.886 265.682 128.214 268.153 124.977 269.432V269.432Z" fill="#FFB6B6"/>
<path d="M102.913 232.618C101.996 231.409 100.698 230.575 99.2486 230.265L78.9445 225.872L76.8593 225.422C75.6475 225.159 74.5027 224.633 73.4999 223.878C72.4971 223.122 71.6589 222.155 71.0402 221.039C70.3983 219.868 70.01 218.565 69.9024 217.222C69.8056 216 69.9461 214.771 70.3157 213.607L77.3515 191.547L81.9167 177.234C82.47 175.507 82.7965 173.711 82.8873 171.894C83.1417 166.865 81.6463 161.908 78.6751 157.933C76.0629 154.439 72.4399 151.911 68.3412 150.724C64.2426 149.537 59.8857 149.754 55.9143 151.341C55.7982 151.385 55.6774 151.433 55.5613 151.482C52.7132 152.665 50.1686 154.521 48.1286 156.904C46.0886 159.287 44.6091 162.13 43.807 165.211L38.8471 183.984L28.6161 222.687C27.592 226.565 27.385 230.627 28.0096 234.596C28.6341 238.564 30.0753 242.346 32.2345 245.681C34.3937 249.016 37.22 251.827 40.5199 253.92C43.8198 256.013 47.5154 257.34 51.3537 257.809L80.5978 261.376L94.1307 263.028C95.6956 263.224 97.2739 262.799 98.5511 261.838C99.8283 260.877 100.711 259.451 101.023 257.843C101.044 257.756 101.062 257.667 101.074 257.577L101.399 255.49L104.153 237.909L104.181 237.731C104.324 236.834 104.285 235.915 104.067 235.035C103.849 234.154 103.455 233.331 102.913 232.618Z" fill="#CACACA"/>
<path d="M156.499 269.996C158.502 270.479 160.582 270.5 162.594 270.057C164.605 269.614 166.499 268.717 168.142 267.43C169.784 266.142 171.135 264.496 172.1 262.607C173.065 260.717 173.62 258.631 173.726 256.494L221.728 242L201.953 224.477L159.401 240.928C155.939 240.98 152.616 242.352 150.062 244.784C147.508 247.215 145.899 250.537 145.542 254.12C145.184 257.703 146.102 261.299 148.121 264.224C150.141 267.15 153.121 269.204 156.499 269.996V269.996Z" fill="#FFB6B6"/>
<path d="M245.562 209.577L222.731 154.903C220.864 150.414 217.529 146.759 213.317 144.586C212.016 143.919 210.649 143.401 209.24 143.04C209.022 142.982 208.803 142.928 208.585 142.885C205.598 142.207 202.499 142.266 199.538 143.059C196.832 143.782 194.302 145.092 192.114 146.901C189.926 148.71 188.13 150.979 186.841 153.56C186.827 153.581 186.815 153.604 186.804 153.627C185.365 156.524 184.6 159.732 184.57 162.993C184.54 166.254 185.246 169.476 186.632 172.401L186.916 172.991L203.049 206.707C203.6 207.86 203.911 209.121 203.96 210.407C204.01 211.694 203.797 212.977 203.337 214.172C202.876 215.367 202.178 216.447 201.288 217.342C200.398 218.236 199.337 218.925 198.173 219.363L197.04 219.788L176.661 227.447C175.132 228.015 173.874 229.178 173.153 230.692C172.431 232.205 172.302 233.951 172.793 235.561L172.844 235.73L178.556 254.751C178.584 254.838 178.612 254.925 178.644 255.011C178.695 255.176 178.757 255.336 178.83 255.49C179.437 256.907 180.51 258.052 181.856 258.719C183.202 259.386 184.733 259.531 186.172 259.129L197.17 256.108L199.413 255.49L227.812 247.686C231.548 246.658 235.028 244.803 238.011 242.246C240.995 239.689 243.412 236.492 245.098 232.873C246.783 229.254 247.697 225.299 247.777 221.278C247.858 217.257 247.102 213.266 245.561 209.577L245.562 209.577Z" fill="#CACACA"/>
<path d="M20.8512 255.49C27.4321 263.842 34.5294 271.739 42.098 279.13H251.998C254.021 279.133 255.959 279.971 257.389 281.459C258.818 282.948 259.622 284.965 259.624 287.07L259.926 342.415C272.839 336.242 284.931 328.36 295.904 318.964C298.95 316.359 301.902 313.642 304.76 310.811C306.632 308.965 308.458 307.074 310.24 305.138C323.598 290.658 334.415 273.854 342.201 255.49H20.8512Z" fill="#3F3D56"/>
<path d="M310.24 305.138C308.461 307.076 306.635 308.967 304.76 310.811H260.079V305.138H310.24Z" fill="white"/>
<path d="M213.002 123.686C212.781 123.262 212.454 122.908 212.056 122.661C211.658 122.414 211.203 122.284 210.74 122.284H58.4871C57.8045 122.286 57.1504 122.569 56.6682 123.072C56.1859 123.575 55.9148 124.256 55.9143 124.966V219.788H213.317V124.966C213.32 124.518 213.211 124.077 213.002 123.686Z" fill="#3F3D56"/>
<path d="M55.7764 217.221V228.922C55.7764 229.407 55.8682 229.887 56.0466 230.335C56.225 230.784 56.4865 231.191 56.8161 231.534C57.1458 231.877 57.5371 232.149 57.9678 232.334C58.3985 232.52 58.8601 232.616 59.3263 232.616H117.423V255.708H116.651C116.59 255.708 116.53 255.721 116.474 255.745C116.418 255.769 116.368 255.804 116.325 255.849C116.282 255.893 116.248 255.946 116.225 256.004C116.202 256.063 116.19 256.125 116.19 256.188V257.794C116.19 257.857 116.202 257.92 116.225 257.978C116.248 258.036 116.282 258.089 116.325 258.134C116.368 258.178 116.418 258.213 116.474 258.238C116.53 258.262 116.59 258.274 116.651 258.274H152.716C152.777 258.274 152.837 258.262 152.893 258.238C152.949 258.213 153 258.178 153.042 258.134C153.085 258.089 153.119 258.036 153.142 257.978C153.166 257.92 153.178 257.857 153.178 257.794V256.188C153.178 256.125 153.166 256.063 153.142 256.004C153.119 255.946 153.085 255.893 153.042 255.849C153 255.804 152.949 255.769 152.893 255.745C152.837 255.721 152.777 255.708 152.716 255.708H151.945V232.616H210.041C210.507 232.616 210.969 232.52 211.4 232.334C211.83 232.149 212.222 231.877 212.551 231.534C212.881 231.191 213.142 230.784 213.321 230.335C213.499 229.887 213.591 229.407 213.591 228.922V217.221H55.7764Z" fill="#3F3D56"/>
<path d="M132.777 183.637C140.806 183.637 147.316 176.864 147.316 168.508C147.316 160.153 140.806 153.38 132.777 153.38C124.747 153.38 118.238 160.153 118.238 168.508C118.238 176.864 124.747 183.637 132.777 183.637Z" fill="#FF7D1B"/>
<path d="M169.821 83.6007H167.499C167.499 65.3341 150.125 53.3642 132.598 53.3546C130.049 53.3468 127.505 53.6042 125.005 54.1229C122.19 54.7076 119.269 55.4083 116.399 56.3217C105.082 59.9315 94.5859 66.9095 94.5859 83.6007C94.5834 86.8422 94.9799 90.0708 95.7655 93.2076L93.5177 93.8164C92.684 90.4805 92.2626 87.0476 92.2638 83.6007C92.2638 69.0164 98.0179 58.9988 107.956 53.026C113.181 49.8849 119.557 47.8601 126.862 46.8743C129.902 46.4535 132.976 46.3563 136.035 46.5844C156.19 48.092 169.821 64.1744 169.821 83.6007Z" fill="#FF7D1B"/>
<path d="M173.689 84.9392L172.774 77.9032C172.549 76.1263 171.726 74.4898 170.452 73.2834C169.634 72.4969 168.656 71.9142 167.589 71.5793C166.523 71.2444 165.398 71.1662 164.299 71.3504L162.845 71.5582C162.447 71.6127 162.064 71.7488 161.717 71.9587C161.37 72.1686 161.067 72.448 160.825 72.7808C160.581 73.1125 160.402 73.4912 160.299 73.8952C160.196 74.2991 160.171 74.7202 160.226 75.1342L162.339 91.3421C162.426 92.0028 162.711 92.6181 163.152 93.1012C163.594 93.5843 164.171 93.9105 164.8 94.0338C164.987 94.0727 165.177 94.0921 165.367 94.0918C165.504 94.0918 165.64 94.0821 165.776 94.0628L167.401 93.8357C168.392 93.6988 169.346 93.3526 170.203 92.8183C171.061 92.2839 171.805 91.5728 172.389 90.7284C172.514 90.5448 172.635 90.3563 172.746 90.163C173.617 88.5818 173.949 86.7412 173.689 84.9392Z" fill="#FF7D1B"/>
<path d="M161.907 71.853C161.481 72.0686 161.11 72.3866 160.825 72.7809C160.581 73.1125 160.402 73.4913 160.299 73.8952C160.196 74.2991 160.171 74.7202 160.226 75.1342L162.339 91.3422C162.426 92.0028 162.711 92.6182 163.152 93.1012C163.594 93.5843 164.171 93.9105 164.8 94.0338L161.907 71.853Z" fill="white"/>
<path d="M173.689 84.9392L172.774 77.9032C172.549 76.1264 171.726 74.4899 170.452 73.2834L172.556 89.4092C172.587 89.6681 172.651 89.9215 172.746 90.1631C173.617 88.5819 173.949 86.7413 173.689 84.9392Z" fill="#3F3D56"/>
<path d="M166.458 90.0089C167.094 89.9192 167.413 88.3457 167.172 86.4945C166.931 84.6432 166.22 83.2152 165.584 83.3049C164.949 83.3946 164.63 84.968 164.871 86.8193C165.112 88.6705 165.823 90.0986 166.458 90.0089Z" fill="#3F3D56"/>
<path d="M165.065 81.3104C165.701 81.2207 166.02 79.6472 165.779 77.796C165.537 75.9447 164.827 74.5167 164.191 74.6064C163.556 74.6961 163.236 76.2695 163.478 78.1208C163.719 79.972 164.43 81.4001 165.065 81.3104Z" fill="#3F3D56"/>
<path d="M173.889 84.6932C174.524 84.6035 174.844 83.0301 174.602 81.1788C174.361 79.3275 173.65 77.8995 173.015 77.9892C172.38 78.0789 172.06 79.6523 172.301 81.5036C172.543 83.3549 173.254 84.7829 173.889 84.6932Z" fill="#3F3D56"/>
<path d="M132.598 53.3546C130.049 53.3468 127.505 53.6042 125.005 54.1229C122.19 54.7076 119.269 55.4083 116.399 56.3217C111.918 56.0946 108.62 54.8864 107.956 53.026C113.181 49.8849 119.557 47.8601 126.862 46.8743C129.902 46.4535 132.976 46.3563 136.035 46.5844C136.358 46.7819 136.638 47.0485 136.856 47.3666C137.074 47.6848 137.224 48.0473 137.298 48.4303C137.516 50.112 135.672 51.9 132.598 53.3546Z" fill="#3F3D56"/>
<path d="M102.95 100.369L99.3739 84.9005C99.2464 84.3424 98.9633 83.836 98.5601 83.4448C98.1568 83.0536 97.6515 82.7951 97.1076 82.7017C96.9539 82.6769 96.7987 82.6639 96.6432 82.6631C96.4241 82.6639 96.2059 82.6915 95.993 82.7452L94.6091 83.0932C92.8272 83.5416 91.2891 84.7073 90.3322 86.3344C89.3753 87.9615 89.0779 89.9172 89.5052 91.7722L91.1074 98.7116C91.4732 100.345 92.3445 101.809 93.5874 102.877C93.7888 103.046 93.9997 103.203 94.219 103.346C94.9974 103.854 95.8657 104.194 96.7727 104.347C97.6796 104.499 98.6067 104.461 99.4993 104.235L100.879 103.887C101.243 103.799 101.586 103.632 101.886 103.399C102.332 103.061 102.672 102.592 102.861 102.052C103.05 101.513 103.081 100.927 102.95 100.369Z" fill="#FF7D1B"/>
<path d="M95.4532 97.491C96.0766 97.3349 96.2415 95.7359 95.8214 93.9195C95.4014 92.1032 94.5555 90.7573 93.9321 90.9134C93.3086 91.0695 93.1438 92.6685 93.5638 94.4849C93.9839 96.3012 94.8298 97.6471 95.4532 97.491Z" fill="#3F3D56"/>
<path d="M90.8091 98.9407C91.4325 98.7846 91.5974 97.1856 91.1773 95.3693C90.7573 93.5529 89.9113 92.207 89.2879 92.3631C88.6645 92.5192 88.4996 94.1182 88.9197 95.9346C89.3398 97.7509 90.1857 99.0968 90.8091 98.9407Z" fill="#3F3D56"/>
<path d="M103.177 100.311L99.6015 84.8426C99.4622 84.2388 99.1548 83.6912 98.7178 83.2683C98.2808 82.8454 97.7336 82.566 97.1448 82.4651L102.026 103.592C102.508 103.225 102.874 102.717 103.079 102.133C103.284 101.549 103.318 100.915 103.177 100.311Z" fill="white"/>
<path d="M90.3133 88.7086C90.2146 88.2784 90.0294 87.8749 89.7699 87.5247C89.2672 88.8793 89.1748 90.3615 89.5052 91.7724L91.1074 98.7117C91.4732 100.345 92.3445 101.809 93.5874 102.877L90.3133 88.7086Z" fill="#3F3D56"/>
</g>
<defs>
<clipPath id="clip0_1_9">
<rect width="395" height="358" fill="white"/>
</clipPath>
</defs>
</svg>
