<?xml version='1.0' encoding='iso-8859-1'?>
<svg version="1.1" xmlns="http://www.w3.org/2000/svg" viewBox="0 0 470 470" xmlns:xlink="http://www.w3.org/1999/xlink" enable-background="new 0 0 470 470">
  <g>
    <path d="M433.457,91.809l-39.91-7.547V7.5c0-4.142-3.357-7.5-7.5-7.5H83.954c-4.143,0-7.5,3.358-7.5,7.5v76.762l-39.931,7.551   c-17.815,3.421-32.309,20.962-32.309,39.103v304.883C4.214,454.657,19.557,470,38.417,470h393.167   c18.859,0,34.202-15.343,34.202-34.202V130.915C465.786,112.774,451.292,95.233,433.457,91.809z M450.786,435.798   c0,10.588-8.614,19.202-19.202,19.202H38.417c-10.588,0-19.202-8.614-19.202-19.202V130.915c0-11.115,9.222-22.275,20.116-24.368   l42.652-8.065l15.401,12.198c1.378,1.091,3.021,1.621,4.651,1.621c2.212,0,4.404-0.975,5.884-2.844   c2.572-3.247,2.024-7.964-1.223-10.536L91.454,86.849V15h287.093v71.849l-15.242,12.072c-3.247,2.572-3.795,7.289-1.224,10.536   c2.572,3.248,7.289,3.796,10.536,1.223l15.401-12.197l42.631,8.061c10.915,2.095,20.137,13.256,20.137,24.371V435.798z"/>
    <path d="m277.5,246.056c-11.028,0-20,8.972-20,19.999-0.001,5.342 2.079,10.365 5.857,14.143 3.777,3.777 8.8,5.858 14.142,5.858 11.027,0 19.999-8.972 20.001-20 0-11.028-8.971-20-20-20zm0,25c-1.335,0-2.591-0.52-3.535-1.464s-1.464-2.2-1.464-3.536c0-2.757 2.243-5 5-5s5,2.243 5,4.999c-0.001,2.758-2.245,5.001-5.001,5.001z"/>
    <path d="m277.5,400c-11.028,0-20,8.972-20,19.999-0.001,5.342 2.079,10.365 5.857,14.143 3.777,3.777 8.8,5.858 14.142,5.858 11.027-0.001 19.999-8.973 20.001-20 0-5.342-2.08-10.365-5.858-14.142-3.777-3.778-8.8-5.858-14.142-5.858zm0,25c-1.336,0-2.591-0.52-3.535-1.464s-1.464-2.2-1.464-3.536c0-2.757 2.243-5 5.001-5 1.335,0 2.59,0.52 3.534,1.464s1.465,2.2 1.465,3.534c-0.001,2.758-2.245,5.002-5.001,5.002z"/>
    <path d="m277.5,323.028c-11.028,0-20,8.972-20,19.999-0.001,5.342 2.079,10.365 5.857,14.143 3.777,3.777 8.8,5.858 14.142,5.858 11.027,0 19.999-8.972 20.001-20 0-11.028-8.971-20-20-20zm0,25c-1.336,0-2.591-0.52-3.535-1.464-0.944-0.944-1.464-2.199-1.464-3.536 0-2.757 2.243-5 5-5s5,2.243 5,4.999c-0.001,2.757-2.245,5.001-5.001,5.001z"/>
    <path d="m235,216.056c-4.143,0-7.5,3.358-7.5,7.5v208.944c0,4.142 3.357,7.5 7.5,7.5s7.5-3.358 7.5-7.5v-208.944c0-4.142-3.357-7.5-7.5-7.5z"/>
    <path d="m338.851,104.217c-31.052-5.971-67.207,15.987-76.138,21.837h-5.213v-33.404l100.61-28.809c3.218-0.921 5.436-3.863 5.436-7.21v-19.131c0-4.142-3.357-7.5-7.5-7.5s-7.5,3.358-7.5,7.5v13.478l-100.61,28.809c-3.218,0.921-5.436,3.863-5.436,7.21v39.058h-15v-39.058c0-3.347-2.218-6.289-5.436-7.21l-100.61-28.809v-13.478c0-4.142-3.357-7.5-7.5-7.5s-7.5,3.358-7.5,7.5v19.131c0,3.347 2.218,6.289 5.436,7.21l100.61,28.809v33.404h-5.215c-8.933-5.85-45.092-27.805-76.136-21.837-1.953,0.375-3.678,1.512-4.794,3.159-0.628,0.928-15.388,23.1-15.388,56.179 0,33.078 14.76,55.25 15.388,56.178 1.116,1.647 2.841,2.784 4.794,3.159 3.657,0.703 7.384,1.019 11.131,1.019 28.051,0 57.121-17.693 65.006-22.855h55.428c7.885,5.162 36.954,22.855 65.007,22.855 3.744,0 7.476-0.316 11.131-1.019 1.953-0.375 3.678-1.512 4.794-3.159 0.628-0.928 15.388-23.1 15.388-56.178 0-33.079-14.76-55.251-15.388-56.179-1.117-1.647-2.842-2.783-4.795-3.159zm-201.666,104.429c-3.431-6.199-11.218-22.734-11.218-45.091 0-22.186 7.814-38.859 11.235-45.094 23.248-2.586 51.03,13.326 60.297,19.152v18.442h-22.499c-4.143,0-7.5,3.358-7.5,7.5s3.357,7.5 7.5,7.5h22.5v18.442c-9.276,5.832-37.069,21.753-60.315,19.149zm120.315-22.59h-45v-45.002h45v45.002zm75.297,22.592c-23.23,2.586-51.022-13.325-60.298-19.153v-18.441h22.501c4.143,0 7.5-3.358 7.5-7.5s-3.357-7.5-7.5-7.5h-22.5v-18.448c9.256-5.835 36.985-21.751 60.296-19.147 3.43,6.251 11.237,22.919 11.237,45.095 0,22.187-7.815,38.86-11.236,45.094z"/>
  </g>
</svg>
